<svg width="58" height="44" viewBox="0 0 58 44" fill="none" xmlns="http://www.w3.org/2000/svg">
<path fill-rule="evenodd" clip-rule="evenodd" d="M37.8295 29.2913H38.3815C38.4719 28.5788 38.8288 28.1917 39.3618 28.1917V33.224H38.9407V33.9365H41.1867V33.224H40.7632V28.1727C41.3009 28.1727 41.7006 28.529 41.8148 29.2913H42.3763V27.503H37.8295V29.2913V29.2913Z" fill="#00529C"/>
<path fill-rule="evenodd" clip-rule="evenodd" d="M57.5918 33.2264L56.1118 30.3077L57.2301 28.2274H57.6536V27.503H56.1547V28.2274H56.4092L55.7121 29.5264L55.0531 28.2274H55.3552V27.503H53.2329L53.2258 28.2274H53.6041L54.965 30.9133L53.7183 33.2193H53.3067V33.946H54.7628V33.2193H54.5368L55.36 31.6923L56.1404 33.2193H55.8906V33.946H57.9153V33.2264H57.5918Z" fill="#00529C"/>
<path fill-rule="evenodd" clip-rule="evenodd" d="M32.4118 30.727C32.4118 32.6269 33.5229 34.1539 35.0766 34.1539C35.4371 34.1716 35.7975 34.1159 36.1358 33.9901C36.4741 33.8644 36.7832 33.6712 37.0443 33.4224V31.8883H36.5874C36.3995 32.8382 36.0354 33.4034 35.3003 33.4034C34.4651 33.4034 33.8727 32.1424 33.8727 30.727C33.8727 29.3116 34.3723 28.0434 35.2479 28.0434C36.0759 28.0434 36.3448 28.6371 36.5422 29.2902H37.0538V28.022C36.528 27.6207 36.083 27.2929 35.1932 27.2929C33.7347 27.2929 32.4213 28.8271 32.4213 30.7175L32.4118 30.727Z" fill="#00529C"/>
<path fill-rule="evenodd" clip-rule="evenodd" d="M45.6764 27.5046H43.2138V28.2171H43.6373V33.2233H43.2138V33.9357H45.4694V33.2233H45.0459V31.5609H45.5217C47.1253 31.5609 47.7892 30.5492 47.7892 29.5138C47.7892 28.4783 47.2039 27.4928 45.6645 27.4928L45.6764 27.5046ZM45.3123 30.8556H45.0506V28.2313H45.2885C45.9857 28.2313 46.433 28.8583 46.433 29.5969C46.433 30.3355 45.9857 30.8556 45.3171 30.8556H45.3123Z" fill="#00529C"/>
<path fill-rule="evenodd" clip-rule="evenodd" d="M52.3693 33.2258L50.7752 27.5071H49.0383V28.2315H49.3452L47.9581 33.2187H47.6536V33.9311H48.9693V33.2187H48.7171L49.0597 31.9719H50.5587L50.9084 33.2187H50.5967V33.9454H52.6572V33.2329L52.3693 33.2258ZM49.2548 31.2784L49.8092 29.2598L50.3707 31.2784H49.2548Z" fill="#00529C"/>
<path fill-rule="evenodd" clip-rule="evenodd" d="M27.1488 30.727C27.1488 32.6269 28.2671 34.1539 29.8207 34.1539C30.1813 34.1722 30.5419 34.1167 30.8802 33.9909C31.2186 33.8651 31.5276 33.6717 31.7884 33.4224V31.8883H31.334C31.1389 32.8382 30.7772 33.4034 30.0492 33.4034C29.2021 33.4034 28.6073 32.1424 28.6073 30.727C28.6073 29.3116 29.107 28.0434 29.9802 28.0434C30.8129 28.0434 31.0889 28.6371 31.2769 29.2902H31.7884V28.022C31.265 27.6207 30.8224 27.2929 29.9326 27.2929C28.4717 27.2929 27.1464 28.8271 27.1488 30.7175V30.727Z" fill="#00529C"/>
<path fill-rule="evenodd" clip-rule="evenodd" d="M13.7653 28.2274H14.1912V30.2745H12.5947V28.2274H13.0253V27.503H10.7579V28.2274H11.1933V33.224H10.7579V33.946H13.0253V33.224H12.5947V30.9703H14.1912V33.224H13.7653V33.946H16.0113V33.224H15.5878V28.2274H16.0113V27.503H13.7653V28.2274Z" fill="#00529C"/>
<path fill-rule="evenodd" clip-rule="evenodd" d="M16.8751 28.2294H17.3105V33.2166H16.8751V33.929H19.321V33.2166H18.7095V28.2294H19.3163C19.8207 28.2294 20.2347 28.588 20.2347 29.3028H20.7438V27.5051H16.8751V28.2294V28.2294Z" fill="#00529C"/>
<path fill-rule="evenodd" clip-rule="evenodd" d="M6.48476 31.9867V28.2274H6.91303V27.503H4.65033V28.2274H5.08574V33.224H4.65033V33.946H6.54662L8.10505 29.5003V33.224H7.66964V33.946H9.94186V33.224H9.50169V28.2274H9.94186V27.503H8.05985L6.48476 31.9867Z" fill="#00529C"/>
<path fill-rule="evenodd" clip-rule="evenodd" d="M23.8344 27.3093C22.1879 27.3093 21.1624 28.8435 21.1624 30.7339C21.1624 32.6242 22.2426 34.1584 23.8344 34.1584C25.4999 34.1584 26.5015 32.629 26.5015 30.7339C26.5015 28.8387 25.4642 27.3093 23.8344 27.3093ZM23.8344 33.4151C23.0349 33.4151 22.6162 32.1493 22.6162 30.7339C22.6162 29.3185 23.0587 28.055 23.8344 28.055C24.61 28.055 25.0597 29.3185 25.0597 30.7339C25.0597 32.1493 24.6481 33.4151 23.8344 33.4151Z" fill="#00529C"/>
<path d="M4.65033 42.9165H5.49736L7.47454 40.1925L7.63633 39.955C7.69344 39.8719 7.7434 39.7959 7.79099 39.7175C7.82318 39.6723 7.85031 39.6238 7.87188 39.5727H7.87664C7.87664 39.5988 7.87664 39.6463 7.87664 39.7128C7.87664 39.7793 7.87664 39.8577 7.86474 39.9384C7.85285 40.0191 7.86474 40.1023 7.86474 40.1759V42.8998H8.71415V38.3544H7.85523L5.88756 41.0831L5.72101 41.3206C5.66391 41.4061 5.61394 41.4797 5.56873 41.558C5.53678 41.6055 5.50739 41.6547 5.4807 41.7053H5.46167C5.46539 41.6634 5.46539 41.6213 5.46167 41.5794C5.46167 41.5129 5.46167 41.4369 5.47356 41.3419C5.48546 41.2469 5.47356 41.1662 5.47356 41.0831V38.3544H4.65033V42.9165Z" fill="#00529C"/>
<path d="M10.3629 42.9165H11.2385V40.9596H13.5512V42.9165H14.4267V38.3544H13.5512V40.2115H11.2385V38.3544H10.3629V42.9165Z" fill="#00529C"/>
<path d="M16.1304 42.9169H18.0814C18.3809 42.923 18.6788 42.8722 18.9593 42.7673C19.1936 42.683 19.3979 42.5319 19.547 42.3327C19.6917 42.1236 19.7666 41.8743 19.7612 41.6203C19.7617 41.4569 19.7285 41.2952 19.6636 41.1453C19.598 40.9977 19.4976 40.8682 19.371 40.7677C19.2333 40.6522 19.0703 40.5708 18.8951 40.5302V40.5302C19.0271 40.4739 19.1474 40.3934 19.2496 40.2927C19.3444 40.1942 19.4188 40.078 19.4685 39.9507C19.5191 39.818 19.5449 39.6772 19.5446 39.5351C19.5522 39.305 19.4855 39.0786 19.3543 38.8892C19.2197 38.7063 19.0345 38.5668 18.8213 38.4878C18.563 38.3943 18.2895 38.3492 18.0148 38.3548H16.1304V42.9169ZM17.0059 40.2832V38.9581H17.8387C18.0545 38.9425 18.2695 38.9984 18.4502 39.1172C18.5188 39.1749 18.5727 39.248 18.6075 39.3306C18.6422 39.4132 18.6568 39.5028 18.65 39.5921C18.6554 39.6855 18.6407 39.7788 18.6071 39.8661C18.5735 39.9533 18.5216 40.0323 18.4549 40.098C18.2892 40.233 18.0783 40.3001 17.8649 40.2856L17.0059 40.2832ZM17.0059 42.3042V40.8793H17.9362C18.1831 40.8653 18.4279 40.932 18.6334 41.0693C18.712 41.1332 18.7745 41.2146 18.8158 41.307C18.8572 41.3994 18.8762 41.5002 18.8713 41.6013C18.8777 41.7345 18.8418 41.8664 18.7687 41.9781C18.6957 42.0898 18.5892 42.1757 18.4644 42.2235C18.2976 42.2874 18.1197 42.3181 17.941 42.3137L17.0059 42.3042Z" fill="#00529C"/>
<path d="M20.8414 40.6378C20.8375 40.9631 20.8982 41.2859 21.0198 41.5877C21.1329 41.8733 21.3036 42.1326 21.5214 42.3496C21.7391 42.5665 21.9992 42.7364 22.2856 42.8488C22.5988 42.9734 22.9334 43.0356 23.2706 43.0316C23.4869 43.0307 23.7025 43.0052 23.913 42.9556C24.125 42.9033 24.3308 42.8285 24.5269 42.7324C24.7134 42.64 24.8863 42.5226 25.0408 42.3833L24.672 41.7444C24.5489 41.8532 24.414 41.948 24.2699 42.0271C24.124 42.1046 23.97 42.1659 23.8107 42.2099C23.6556 42.2525 23.4957 42.2748 23.3348 42.2764C23.1354 42.2777 22.9373 42.244 22.7495 42.1767C22.5648 42.1121 22.3953 42.0102 22.2516 41.8774C22.1079 41.7446 21.9931 41.5838 21.9144 41.4048C21.8222 41.1998 21.7713 40.9787 21.7645 40.7541H25.0955C25.0955 40.69 25.1145 40.6283 25.1217 40.5665C25.1251 40.5056 25.1251 40.4446 25.1217 40.3837C25.1239 40.1023 25.0805 39.8224 24.9932 39.5548C24.9126 39.3065 24.785 39.0759 24.6173 38.8756C24.4467 38.6784 24.2347 38.5211 23.9963 38.4149C23.7263 38.3003 23.4355 38.2429 23.1421 38.2463C22.8317 38.2445 22.5239 38.3026 22.2356 38.4173C21.9627 38.5238 21.7148 38.6855 21.5076 38.8923C21.299 39.1081 21.1371 39.3643 21.0317 39.6451C20.9108 39.9603 20.8511 40.2955 20.8556 40.633L20.8414 40.6378ZM21.7931 40.1224C21.8274 39.8902 21.9136 39.6686 22.0453 39.4741C22.1666 39.2999 22.3304 39.1593 22.5211 39.0656C22.7137 38.969 22.9267 38.9202 23.1421 38.9231C23.3328 38.9201 23.5208 38.9677 23.687 39.0609C23.844 39.159 23.9714 39.2976 24.0558 39.4622C24.1639 39.6656 24.2211 39.8922 24.2223 40.1224H21.7931Z" fill="#00529C"/>
<path d="M26.1828 40.6377C26.1815 40.963 26.2428 41.2855 26.3636 41.5876C26.4784 41.8712 26.6491 42.1288 26.8657 42.3452C27.0871 42.5624 27.3501 42.7328 27.6389 42.8463C27.9553 42.9683 28.292 43.0287 28.6311 43.0244C29.0949 43.0252 29.5511 42.9074 29.9564 42.6824C30.1411 42.5786 30.3094 42.4482 30.456 42.2953L30.1039 41.6541C29.9832 41.7803 29.8455 41.889 29.6946 41.9771C29.5457 42.0681 29.3858 42.1399 29.2188 42.1908C29.0531 42.2422 28.8807 42.2686 28.7072 42.2692C28.4828 42.2696 28.2605 42.226 28.0529 42.141C27.861 42.0629 27.6876 41.9456 27.5438 41.7966C27.3981 41.6465 27.2841 41.4689 27.2083 41.2741C27.0497 40.858 27.0497 40.3983 27.2083 39.9822C27.2827 39.79 27.3952 39.6147 27.539 39.4669C27.6823 39.3207 27.854 39.2052 28.0434 39.1273C28.3961 38.984 28.7871 38.9647 29.1522 39.0726C29.3038 39.1148 29.4493 39.1763 29.5852 39.2555C29.7164 39.3304 29.8372 39.4223 29.9445 39.5286L30.3585 38.9135C30.2131 38.7616 30.0434 38.6348 29.8564 38.5383C29.6679 38.4389 29.4671 38.3647 29.2592 38.3174C29.0572 38.2705 28.8505 38.2466 28.643 38.2462C28.3043 38.2444 27.9683 38.3072 27.6532 38.4314C27.3656 38.544 27.104 38.7139 26.8843 38.9307C26.6647 39.1475 26.4916 39.4067 26.3755 39.6925C26.2543 39.9945 26.1929 40.3171 26.1947 40.6424L26.1828 40.6377Z" fill="#00529C"/>
<path d="M32.8544 42.9165H33.7228V39.1025H35.3217V38.3544H31.265V39.1025H32.8544V42.9165Z" fill="#00529C"/>
<path d="M36.49 42.9165H37.3299L39.3094 40.1925C39.357 40.1189 39.4117 40.0429 39.4688 39.955L39.6235 39.7175C39.6552 39.6716 39.6831 39.6232 39.7068 39.5727H39.7234C39.7234 39.5988 39.7234 39.6463 39.7234 39.7128C39.7234 39.7793 39.7234 39.8577 39.7234 39.9384C39.7234 40.0191 39.7234 40.1023 39.7234 40.1759V42.8998H40.5728V38.3544H39.7234L37.7272 41.0831L37.563 41.3206C37.5059 41.4061 37.4536 41.4797 37.4084 41.558C37.3764 41.6055 37.347 41.6547 37.3204 41.7053H37.3037C37.3037 41.6863 37.3037 41.6459 37.3037 41.5794C37.3037 41.5129 37.3037 41.4369 37.3156 41.3419C37.3275 41.2469 37.3156 41.1662 37.3156 41.0831V38.3544H36.4757V42.9165H36.49Z" fill="#00529C"/>
<path d="M42.2024 42.9165H45.9783V43.9994H46.7825V42.1589H46.1401V38.3544H45.255V42.1589H43.0803V38.3544H42.2024V42.9165Z" fill="#00529C"/>
<path d="M48.1342 42.9165H48.974L50.9536 40.1925L51.113 39.955L51.2677 39.7175C51.2994 39.6716 51.3273 39.6232 51.3509 39.5727H51.3676C51.3676 39.5988 51.3676 39.6463 51.3676 39.7128C51.3676 39.7793 51.3676 39.8577 51.3676 39.9384C51.3676 40.0191 51.3676 40.1023 51.3676 40.1759V42.8998H52.217V38.3544H51.3676L49.3714 41.0831L49.2072 41.3206C49.1501 41.4061 49.0978 41.4797 49.0526 41.558C49.0206 41.6055 48.9912 41.6547 48.9645 41.7053H48.9479C48.9479 41.6863 48.9479 41.6459 48.9479 41.5794C48.9479 41.5129 48.9479 41.4369 48.9598 41.3419C48.9717 41.2469 48.9598 41.1662 48.9598 41.0831V38.3544H48.1342V42.9165Z" fill="#00529C"/>
<path d="M53.8611 42.9165H54.701L56.6781 40.1925L56.8399 39.955L56.9922 39.7175C57.0249 39.6722 57.0528 39.6237 57.0755 39.5727H57.0945C57.0945 39.5988 57.0945 39.6463 57.0945 39.7128C57.0945 39.7793 57.0945 39.8577 57.0826 39.9384C57.0707 40.0191 57.0826 40.1023 57.0826 40.1759V42.8998H57.932V38.3544H57.0826L55.0983 41.0831L54.9318 41.3206C54.8747 41.4061 54.8247 41.4797 54.7795 41.558C54.7475 41.6055 54.7181 41.6547 54.6914 41.7053H54.6724C54.6761 41.6634 54.6761 41.6213 54.6724 41.5794C54.6724 41.5129 54.6724 41.4369 54.6843 41.3419C54.6962 41.2469 54.6843 41.1662 54.6843 41.0831V38.3544H53.8444V42.9165H53.8611Z" fill="#00529C"/>
<path fill-rule="evenodd" clip-rule="evenodd" d="M0.976562 6.34085L9.62764 0.365727C9.91144 0.142416 10.2587 0.0144035 10.6198 0C10.9589 0.000202051 11.286 0.125 11.5388 0.350582C11.7916 0.576164 11.9523 0.886738 11.9903 1.22305C12.0022 1.34892 11.9903 1.48428 11.9903 1.61015V7.6114L23.0183 0V15.6598L14.3672 21.6349C14.0825 21.8559 13.7354 21.9822 13.375 21.9959C13.0837 21.9962 12.7997 21.9045 12.5638 21.7338C12.3278 21.5632 12.1521 21.3224 12.0616 21.0459C12.0002 20.8137 11.9777 20.573 11.995 20.3335V17.0562C11.9986 16.9913 11.9986 16.9263 11.995 16.8614C11.971 16.6293 11.888 16.407 11.7538 16.2159C11.6196 16.0247 11.4387 15.8709 11.2282 15.7691C11.0178 15.6673 10.7848 15.6208 10.5513 15.6341C10.3178 15.6474 10.0916 15.72 9.89412 15.845L9.7585 15.9376L0.976562 22.0006V6.34085Z" fill="#E21E4C"/>
</svg>
